HIERARCHY
ROOT Hips
{
	OFFSET -3.958830 18.904000 13.208200
	CHANNELS 6 Xposition Yposition Zposition Zrotation Yrotation Xrotation 
	JOINT LHipJoint
	{
		OFFSET 0.000000 0.000000 0.000000
		CHANNELS 3 Zrotation Yrotation Xrotation
		JOINT LeftUpLeg
		{
			OFFSET 1.800000 -1.400000 0.085000
			CHANNELS 3 Zrotation Yrotation Xrotation
			JOINT LeftLeg
			{
				OFFSET 2.215000 -6.000000 0.000000
				CHANNELS 3 Zrotation Yrotation Xrotation
				JOINT LeftFoot
				{
					OFFSET 2.500000 -6.900000 0.000000
					CHANNELS 3 Zrotation Yrotation Xrotation
					JOINT LeftToeBase
					{
						OFFSET 0.200000 -0.500000 1.950000
						CHANNELS 3 Zrotation Yrotation Xrotation
						End Site
						{
							OFFSET 0.000000 0.000000 0.000000
						}
					}
				}
			}
		}
	}
	JOINT RHipJoint
	{
		OFFSET 0.000000 0.000000 0.000000
		CHANNELS 3 Zrotation Yrotation Xrotation
		JOINT RightUpLeg
		{
			OFFSET -1.800000 -1.400000 0.085000
			CHANNELS 3 Zrotation Yrotation Xrotation
			JOINT RightLeg
			{
				OFFSET -2.215000 -6.000000 0.000000
				CHANNELS 3 Zrotation Yrotation Xrotation
				JOINT RightFoot
				{
					OFFSET -2.500000 -6.900000 0.000000
					CHANNELS 3 Zrotation Yrotation Xrotation
					JOINT RightToeBase
					{
						OFFSET -0.200000 -0.500000 1.950000
						CHANNELS 3 Zrotation Yrotation Xrotation
						End Site
						{
							OFFSET 0.000000 0.000000 0.000000
						}
					}
				}
			}
		}
	}
	JOINT LowerBack
	{
		OFFSET 0.000000 0.000000 0.000000
		CHANNELS 3 Zrotation Yrotation Xrotation
		JOINT Spine
		{
			OFFSET -0.087000 1.940000 -0.288900
			CHANNELS 3 Zrotation Yrotation Xrotation
			JOINT Spine1
			{
				OFFSET 0.000000 1.950000 0.060000
				CHANNELS 3 Zrotation Yrotation Xrotation
				JOINT Neck
				{
					OFFSET 0.000000 0.000000 0.000000
					CHANNELS 3 Zrotation Yrotation Xrotation
					JOINT Neck1
					{
						OFFSET 0.000000 1.600000 0.340000
						CHANNELS 3 Zrotation Yrotation Xrotation
						JOINT Head
						{
							OFFSET 0.000000 1.667000 -0.240000
							CHANNELS 3 Zrotation Yrotation Xrotation
							End Site
							{
								OFFSET 0.000000 0.000000 0.000000
							}
						}
					}
				}
				JOINT LeftShoulder
				{
					OFFSET 0.000000 0.000000 0.000000
					CHANNELS 3 Zrotation Yrotation Xrotation
					JOINT LeftArm
					{
						OFFSET 2.700000 1.550000 -0.730000
						CHANNELS 3 Zrotation Yrotation Xrotation
						JOINT LeftForeArm
						{
							OFFSET 5.450000 0.000000 0.000000
							CHANNELS 3 Zrotation Yrotation Xrotation
							JOINT LeftHand
							{
								OFFSET 3.450000 0.000000 0.000000
								CHANNELS 3 Zrotation Yrotation Xrotation
								JOINT LeftHandIndex1
								{
									OFFSET 0.750000 0.000000 0.000000
									CHANNELS 3 Zrotation Yrotation Xrotation
									End Site
									{
										OFFSET 0.000000 0.000000 0.000000
									}
								}
							}
						}
					}
				}
				JOINT RightShoulder
				{
					OFFSET 0.000000 0.000000 0.000000
					CHANNELS 3 Zrotation Yrotation Xrotation
					JOINT RightArm
					{
						OFFSET -2.700000 1.550000 -0.730000
						CHANNELS 3 Zrotation Yrotation Xrotation
						JOINT RightForeArm
						{
							OFFSET -5.450000 0.000000 0.000000
							CHANNELS 3 Zrotation Yrotation Xrotation
							JOINT RightHand
							{
								OFFSET -3.450000 0.000000 0.000000
								CHANNELS 3 Zrotation Yrotation Xrotation
								JOINT RightHandIndex1
								{
									OFFSET -0.750000 0.000000 0.000000
									CHANNELS 3 Zrotation Yrotation Xrotation
									End Site
									{
										OFFSET 0.000000 0.000000 0.000000
									}
								}
							}
						}
					}
				}
			}
		}
	}
}
MOTION
Frames: 10
Frame Time: 0.016667
9.721730 16.237710 2.178800 6.061269 2.293947 1.593488 -15.799060 11.026574 6.257286 25.223510 -3.744772 -34.383978 -44.325022 29.370231 35.985558 1.713198 12.712320 0.235298 0.358470 0.409530 0.040840 18.032668 -8.691714 2.425680 -6.151438 5.227673 -20.593847 20.822764 -10.402141 25.931161 -0.496136 -5.236040 2.418233 0.366240 0.253420 0.118500 -2.423556 -2.636594 -9.277522 -8.274956 2.583186 31.623091 -7.446677 8.543031 18.164232 1.592745 -1.930149 -13.047622 -6.891992 -3.253132 36.840157 4.500120 -6.509290 -9.623480 2.130194 -50.745691 -1.542316 16.489343 -44.954441 -20.911467 66.463717 -22.535731 -17.695267 -4.309346 2.931784 0.087360 0.096240 -0.012220 0.199640 -5.954215 57.644234 5.436909 -19.548017 23.207176 -22.385142 -65.706415 -4.354973 -3.931971 3.219584 -1.979776 -0.055390 0.285670 -0.002880 0.081390 
9.682770 16.214970 2.184090 6.251088 6.545805 3.480737 -15.795431 11.000339 6.250705 22.956791 -4.762061 -35.699685 -44.468425 30.713937 38.254827 1.799690 13.027548 0.145201 0.424570 0.492940 0.081830 18.032835 -8.601416 2.511435 -6.145477 5.545570 -22.577820 20.814911 -10.046138 25.405234 -0.489163 -5.029984 2.457312 0.416120 0.213410 0.122260 -2.419082 -2.699493 -9.310716 -6.798685 2.983637 32.347640 -5.956781 8.125134 18.958361 1.057079 -0.791592 -12.971431 -4.789009 -5.326959 35.570519 5.445710 -7.712500 -12.225810 0.622686 -53.215872 -1.250875 17.160366 -48.584870 -21.462995 68.766845 -25.255047 -19.527449 -4.262466 2.863485 0.111560 0.060170 0.028320 0.205630 -3.474653 58.959816 5.202573 -16.166615 24.092218 -23.931374 -71.712894 2.512690 -7.760953 3.060837 -1.931469 -0.035700 0.297450 -0.027990 0.081630 
9.646710 16.189110 2.166730 6.102645 9.653979 4.656254 -15.741399 10.994379 6.188828 20.790823 -5.915010 -35.873977 -43.512373 31.783264 41.084507 1.976033 13.336716 0.087008 0.397910 0.455620 0.073760 18.052133 -8.612236 2.656517 -5.930773 5.815223 -23.985011 21.459863 -9.840845 24.508259 -0.485608 -4.854133 2.518276 0.352300 0.172700 0.118480 -2.525235 -2.562942 -9.398867 -4.946828 3.007234 34.284361 -5.379316 7.798220 18.273300 1.009995 0.604105 -13.615367 -2.795383 -7.081134 36.865546 7.178990 -9.069570 -12.543710 0.454023 -55.816460 -0.930981 15.823990 -49.849637 -21.103479 70.075096 -28.349642 -21.138725 -4.218417 2.807044 0.140290 0.009730 0.064020 0.197070 -3.166685 60.556470 4.532663 -12.883841 23.734046 -24.941792 -75.875721 6.445002 -10.324519 3.072231 -1.845078 -0.008710 0.263980 -0.038700 0.090040 
9.622700 16.161180 2.151090 5.531490 12.079204 5.472357 -15.697543 11.047527 6.047168 18.731409 -6.675492 -35.020101 -42.653667 31.757938 42.234064 2.040578 13.381695 0.083536 0.395330 0.447750 0.086960 18.063397 -8.616712 2.808829 -5.416425 6.217806 -24.969032 22.207996 -9.779888 24.074859 -0.510309 -4.777456 2.542110 0.319110 0.133650 0.120770 -2.607444 -2.513690 -9.435722 -2.770495 2.855904 36.061474 -4.550494 7.374691 18.012187 0.888832 1.596780 -13.945980 -1.393828 -8.691131 37.646807 8.101540 -10.139240 -13.505710 -0.140380 -57.329910 -0.624555 14.921027 -51.206059 -20.712340 71.129494 -31.164471 -22.680605 -4.179445 2.741199 0.171570 -0.028740 0.102200 0.188430 -2.326525 61.278094 4.266071 -10.569877 23.568663 -26.032199 -79.024333 10.986564 -13.504210 3.064087 -1.750750 0.012340 0.247250 -0.049980 0.089730 
9.608390 16.142360 2.146710 4.966062 15.126947 6.865489 -15.657618 11.144363 5.879200 16.382755 -7.397237 -34.265499 -41.126926 31.072225 43.073575 2.027762 13.310117 0.101667 0.380730 0.428430 0.073440 18.080369 -8.534859 3.009084 -5.231555 6.880437 -26.845281 23.124229 -9.890437 24.225738 -0.531549 -4.774768 2.537228 0.296540 0.114600 0.109730 -2.701696 -2.661956 -9.479109 -0.370389 2.039907 37.764594 -3.598651 6.365547 17.497730 0.378176 1.468608 -14.282414 -1.878179 -9.698218 36.974718 9.666120 -11.280830 -15.337860 -2.301157 -58.270242 -0.745689 10.206967 -53.013781 -18.187712 74.688624 -36.038751 -26.540565 -4.150244 2.581790 0.210150 -0.065020 0.119240 0.177240 0.731982 61.631511 5.440542 -9.307360 23.514898 -26.880347 -82.649715 16.202691 -17.804817 3.028614 -1.667824 0.009280 0.251790 -0.039360 0.087870 
9.591800 16.123040 2.145940 5.191333 17.908399 8.464309 -15.659567 11.310670 5.708589 13.965722 -7.960608 -33.087608 -39.428058 30.616218 44.210607 2.024810 13.289239 0.108597 0.395760 0.438100 0.102350 18.055622 -8.460772 3.152695 -5.404728 7.306040 -28.622438 23.086653 -9.664056 24.161899 -0.532175 -4.645583 2.565477 0.293140 0.084110 0.111180 -2.686639 -2.922800 -9.491288 0.767018 1.561119 38.571265 -2.485657 5.326079 17.168114 0.017950 1.931893 -14.459033 -1.342822 -10.323306 37.265637 10.147030 -11.339460 -16.727280 -4.683069 -58.729887 -0.416448 5.022663 -54.027842 -14.639806 78.854566 -41.017825 -31.169509 -4.119033 2.395649 0.248270 -0.093190 0.152010 0.171080 3.794803 61.044564 6.154288 -5.502397 23.942471 -26.834303 -84.651930 22.005118 -22.807295 2.934753 -1.559427 0.011500 0.253300 -0.049600 0.074270 
9.588660 16.105050 2.152260 4.865434 19.999013 9.951938 -15.622805 11.477279 5.448235 11.947037 -8.180069 -30.849161 -36.911378 29.096425 44.500149 1.918471 12.992539 0.177361 0.443320 0.496450 0.135430 18.066183 -8.489351 3.308879 -4.705901 7.737388 -30.177052 22.487648 -9.158505 23.828483 -0.518888 -4.416775 2.628832 0.329890 0.059280 0.113410 -2.783486 -2.983345 -9.442517 2.688464 0.492713 39.001712 -2.170646 4.026340 17.295056 -0.064574 1.998831 -14.293152 -1.087302 -10.576823 36.576182 10.323050 -11.101750 -18.513130 -8.112690 -58.727167 0.479074 1.998305 -54.799118 -11.966507 80.207608 -44.781560 -33.994576 -4.065743 2.285089 0.269760 -0.113000 0.180480 0.180990 7.384508 59.764969 6.658692 -2.960580 25.074993 -26.086523 -85.402136 27.027632 -27.232767 2.830022 -1.485592 0.017660 0.264410 -0.071930 0.068320 
9.594180 16.079410 2.150160 4.523065 22.346695 11.631076 -15.612549 11.681992 5.169565 10.109814 -8.031163 -28.273460 -35.234782 27.322236 43.342087 1.764349 12.488208 0.303904 0.494100 0.553780 0.205200 18.057930 -8.438455 3.505275 -4.484343 8.350303 -32.205854 22.244676 -9.013264 24.291372 -0.541914 -4.333605 2.635529 0.365490 0.010740 0.111280 -2.818309 -3.209935 -9.411508 4.622944 -0.626944 38.987821 -1.277746 2.440589 17.037651 -0.169096 2.373423 -14.161331 -0.453157 -10.287186 36.477265 9.185790 -9.717910 -20.029250 -10.055692 -58.123336 0.966085 -0.454642 -54.864464 -9.574101 82.009487 -48.233529 -36.896776 -4.030658 2.149747 0.305870 -0.134700 0.224220 0.178350 9.550772 57.673459 7.380047 0.558309 25.497650 -25.315454 -84.347624 31.580149 -30.836185 2.728097 -1.420044 0.015950 0.273510 -0.104450 0.038940 
9.609030 16.054140 2.147600 4.182288 24.894970 13.619484 -15.615151 11.895750 4.911022 8.554248 -7.807237 -25.883222 -33.384177 25.501747 42.147958 1.620017 11.939399 0.441733 0.513810 0.576840 0.252500 18.041363 -8.338059 3.742266 -4.407452 9.021227 -34.744605 22.138345 -8.927825 24.721524 -0.557418 -4.251564 2.643173 0.365240 -0.037840 0.122030 -2.831420 -3.521000 -9.424046 6.453595 -1.999775 38.994292 -0.063771 0.896329 15.686238 -0.306468 2.856175 -14.211830 0.394402 -10.129206 36.434223 8.432290 -8.470630 -21.602270 -12.692870 -58.001605 0.879158 -8.012819 -54.047564 -4.092922 86.412241 -54.189672 -43.485610 -4.028848 1.835440 0.339810 -0.156200 0.267740 0.160210 12.476120 55.241743 8.998228 4.457875 25.161676 -24.638610 -84.786551 36.597479 -35.411439 2.644578 -1.332036 0.027110 0.258890 -0.118900 0.015110 
9.640370 16.025990 2.140290 4.002720 27.794115 15.792388 -15.602362 12.096764 4.629191 7.155816 -7.471995 -23.296193 -31.236468 23.449019 40.623051 1.446273 11.306724 0.619109 0.512610 0.566990 0.273190 18.039438 -8.242630 4.021865 -5.125131 9.523314 -37.676408 22.738525 -9.154766 25.204736 -0.575568 -4.318269 2.604138 0.356010 -0.056060 0.130730 -2.901946 -3.805958 -9.457356 8.811868 -3.741759 38.379479 1.281796 -1.009970 14.246687 -0.638166 3.100339 -14.187800 0.735278 -9.892667 36.912375 7.720720 -7.718370 -21.951920 -14.649026 -57.604722 1.051626 -15.112574 -53.199509 1.052516 91.852540 -58.891279 -50.712765 -4.113247 1.457170 0.357690 -0.158920 0.280010 0.145600 15.126747 52.279297 10.438536 8.488014 24.864520 -23.630996 -83.998293 41.182970 -38.946140 2.556637 -1.258548 0.026100 0.247840 -0.116460 -0.003360 
